<svg width="13" height="15" viewBox="0 0 13 15" fill="none" xmlns="http://www.w3.org/2000/svg">
<path d="M7.99669 0.376953H5.15514C2.40441 0.376953 0.185669 2.6213 0.185669 5.40704V7.56279C0.185669 9.50854 1.28855 11.2771 3.02722 12.104V14.5124C3.02722 14.6338 3.13751 14.7453 3.27699 14.7453C3.33213 14.7453 3.39701 14.7224 3.44242 14.6797L5.49574 12.5896H7.99669C10.7507 12.5896 12.9694 10.3453 12.9694 7.55951V5.40376C12.9694 2.6213 10.7507 0.376953 7.99669 0.376953ZM9.86511 9.80385L9.15472 10.5224C8.38919 11.2738 6.42346 10.4109 4.68479 8.62262C2.94612 6.83436 2.17411 4.80986 2.9072 4.05846L3.61759 3.33988C3.90304 3.0741 4.35068 3.08723 4.63289 3.36285L5.66117 4.44565C5.92391 4.73439 5.92391 5.16423 5.63846 5.45298C5.56061 5.53172 5.47303 5.57438 5.37572 5.62032C5.01566 5.73188 4.83076 6.08297 4.91834 6.45046C5.09351 7.2478 6.0861 8.242 6.8419 8.43887C7.19223 8.52746 7.55229 8.32731 7.67231 7.98607C7.79233 7.6317 8.18483 7.43482 8.55786 7.55623C8.66815 7.58904 8.75573 7.66779 8.84332 7.73341L9.87159 8.81621C10.1279 9.07543 10.1279 9.51839 9.86511 9.80385ZM7.21169 3.79269C7.13384 3.79269 7.06897 3.79269 7.00409 3.81566C6.88407 3.83862 6.75432 3.73691 6.74135 3.59581C6.72837 3.45472 6.8192 3.34316 6.94895 3.33004C7.03653 3.30707 7.12411 3.30707 7.21169 3.30707C8.52218 3.30707 9.57317 4.38987 9.59263 5.69579C9.59263 5.78438 9.59263 5.87297 9.56992 5.96156C9.54722 6.08297 9.4499 6.19453 9.30718 6.17156C9.16445 6.14859 9.07687 6.05016 9.09957 5.90578C9.09957 5.82703 9.12228 5.76141 9.12228 5.69579C9.11255 4.65564 8.25944 3.79269 7.21169 3.79269ZM8.63247 5.71547C8.60976 5.83688 8.51245 5.94844 8.36972 5.92547C8.25944 5.9025 8.16212 5.81391 8.16212 5.71547C8.16212 5.19704 7.73719 4.76392 7.22143 4.76392C7.10141 4.78689 6.97166 4.67533 6.95868 4.54408C6.93597 4.42268 7.04626 4.29143 7.16628 4.27831H7.19872C8.0194 4.27831 8.63247 4.91814 8.63247 5.71547ZM10.4457 6.47671C10.423 6.59812 10.303 6.68671 10.183 6.67687C10.063 6.66702 9.9754 6.53249 9.98513 6.41109C9.98513 6.38812 9.98513 6.38812 9.98513 6.37828C10.0403 6.16828 10.063 5.94844 10.063 5.71547C10.063 4.13393 8.78493 2.84114 7.22143 2.84114C7.14358 2.84114 7.0787 2.84114 7.01382 2.84114C6.89381 2.86411 6.76405 2.75255 6.76405 2.6213C6.74135 2.49989 6.85164 2.36864 6.97166 2.36864C7.05924 2.36864 7.14682 2.34568 7.22143 2.34568C9.04767 2.34568 10.5431 3.84847 10.5431 5.70563C10.5333 5.95828 10.5009 6.2339 10.4457 6.47671Z" fill="none"/>
</svg>
