<svg width="14" height="14" viewBox="0 0 14 14" fill="none" xmlns="http://www.w3.org/2000/svg">
<path d="M7.17844 0.376953C3.42917 0.376953 0.387085 3.41622 0.387085 7.16203C0.387085 8.66193 0.873029 10.0434 1.69479 11.1683L0.82957 13.7261L3.52794 12.8853C4.58279 13.5563 5.83519 13.9471 7.17844 13.9471C10.9277 13.9471 13.9698 10.9078 13.9698 7.16203C13.9698 3.41622 10.9277 0.376953 7.17844 0.376953ZM10.2877 10.8013C9.05506 11.2946 7.58537 10.817 5.97741 9.59739C4.36945 8.37774 3.31065 6.66075 3.23953 5.38583C3.16842 4.11092 4.20747 3.46754 4.77243 3.47148C5.33739 3.47543 5.95766 5.27926 5.96556 5.55556C5.97346 5.8358 5.27418 6.33314 5.24652 6.56996C5.21887 6.80679 6.19866 7.97513 6.61349 8.2909C7.02436 8.60272 7.87378 9.20268 8.31231 9.14742C8.7469 9.08822 9.0353 8.21591 9.31186 8.16065C9.58841 8.10539 11.0976 8.85534 11.2477 9.04875C11.3979 9.2461 11.3821 10.3671 10.2877 10.8013Z" fill="none"/>
</svg>
